<svg xmlns="http://www.w3.org/2000/svg" xmlns:xlink="http://www.w3.org/1999/xlink" width="500" zoomAndPan="magnify" viewBox="0 0 375 374.999991" height="500" preserveAspectRatio="xMidYMid meet" version="1.0"><defs><clipPath id="f2608c47a7"><path d="M 0 4.609375 L 375 4.609375 L 375 375 L 0 375 Z M 0 4.609375 " clip-rule="nonzero"/></clipPath><clipPath id="8fe630cc31"><path d="M 0 4.609375 L 189 4.609375 L 189 375 L 0 375 Z M 0 4.609375 " clip-rule="nonzero"/></clipPath></defs><g clip-path="url(#f2608c47a7)"><path fill="#ffc44d" d="M 13.953125 3.738281 C 10.203125 3.738281 6.628906 5.351562 4.148438 8.164062 C 1.664062 10.976562 0.507812 14.71875 0.972656 18.441406 L 35.855469 297.511719 C 36.398438 301.851562 39.074219 305.632812 42.988281 307.589844 L 182.523438 377.355469 C 186.203125 379.199219 190.539062 379.199219 194.222656 377.355469 L 333.757812 307.589844 C 337.667969 305.632812 340.34375 301.851562 340.886719 297.511719 L 375.769531 18.441406 C 376.238281 14.71875 375.082031 10.976562 372.597656 8.164062 C 370.113281 5.351562 366.542969 3.738281 362.789062 3.738281 Z M 13.953125 3.738281 " fill-opacity="1" fill-rule="nonzero"/></g><g clip-path="url(#8fe630cc31)"><path fill="#e5b045" d="M 188.371094 3.738281 L 188.371094 378.738281 C 186.367188 378.738281 184.363281 378.277344 182.523438 377.355469 L 42.988281 307.589844 C 39.074219 305.632812 36.398438 301.851562 35.855469 297.511719 L 0.972656 18.441406 C 0.507812 14.71875 1.664062 10.976562 4.148438 8.164062 C 6.628906 5.351562 10.203125 3.738281 13.953125 3.738281 Z M 188.371094 3.738281 " fill-opacity="1" fill-rule="evenodd"/></g><path fill="#cfd8dc" d="M 162.210938 56.0625 C 169.433594 56.0625 175.292969 61.921875 175.292969 69.144531 L 175.292969 295.890625 C 175.292969 300.554688 172.808594 304.863281 168.777344 307.203125 C 164.742188 309.546875 159.769531 309.5625 155.722656 307.246094 L 94.675781 272.363281 C 88.402344 268.78125 86.222656 260.789062 89.808594 254.515625 C 93.390625 248.242188 101.382812 246.0625 107.65625 249.648438 L 149.128906 273.347656 L 149.128906 69.144531 C 149.128906 61.921875 154.988281 56.0625 162.210938 56.0625 Z M 162.210938 56.0625 " fill-opacity="1" fill-rule="evenodd"/><path fill="#eceff1" d="M 201.457031 69.144531 C 201.457031 61.921875 207.3125 56.0625 214.539062 56.0625 L 301.746094 56.0625 C 308.972656 56.0625 314.828125 61.921875 314.828125 69.144531 C 314.828125 76.371094 308.972656 82.226562 301.746094 82.226562 L 227.621094 82.226562 L 227.621094 166.210938 L 290.1875 152.304688 C 294.265625 151.398438 298.53125 152.496094 301.664062 155.253906 C 304.800781 158.011719 306.433594 162.101562 306.054688 166.261719 L 297.332031 262.191406 C 296.921875 266.703125 294.207031 270.679688 290.15625 272.707031 L 220.386719 307.589844 C 213.925781 310.820312 206.070312 308.203125 202.835938 301.738281 C 199.605469 295.277344 202.226562 287.421875 208.6875 284.191406 L 271.9375 252.5625 L 278.378906 181.730469 L 217.375 195.285156 C 213.503906 196.148438 209.445312 195.203125 206.351562 192.722656 C 203.257812 190.238281 201.457031 186.484375 201.457031 182.519531 Z M 201.457031 69.144531 " fill-opacity="1" fill-rule="evenodd"/></svg>