<svg xmlns="http://www.w3.org/2000/svg" xmlns:xlink="http://www.w3.org/1999/xlink" width="500" zoomAndPan="magnify" viewBox="0 0 375 374.999991" height="500" preserveAspectRatio="xMidYMid meet" version="1.0"><defs><clipPath id="a280b3e2ed"><path d="M 21 317.523438 L 354 317.523438 L 354 368.523438 L 21 368.523438 Z M 21 317.523438 " clip-rule="nonzero"/></clipPath><clipPath id="e07962f8f4"><path d="M 43 8.339844 L 332.863281 8.339844 L 332.863281 310 L 43 310 Z M 43 8.339844 " clip-rule="nonzero"/></clipPath></defs><g clip-path="url(#a280b3e2ed)"><path fill="#ffffff" d="M 41.886719 337.828125 L 25.734375 337.828125 L 25.734375 321.585938 L 42.761719 321.585938 C 48.996094 321.585938 52.113281 324.332031 52.113281 329.824219 C 52.113281 335.15625 48.703125 337.820312 41.886719 337.820312 M 53.496094 321.394531 C 51.28125 319.414062 48.1875 318.421875 44.207031 318.421875 L 21.074219 318.550781 L 21.074219 357.410156 L 25.734375 357.410156 L 25.691406 340.867188 L 42.902344 340.867188 C 47.21875 340.867188 50.617188 339.875 53.097656 337.894531 C 55.574219 335.910156 56.808594 333.160156 56.808594 329.644531 C 56.808594 326.125 55.703125 323.382812 53.480469 321.394531 Z M 83.667969 349.253906 C 83.195312 350.566406 82.457031 351.667969 81.449219 352.558594 C 79.363281 354.597656 76.175781 355.613281 71.890625 355.613281 C 68.023438 355.613281 65.054688 354.625 62.984375 352.644531 C 60.910156 350.660156 59.875 348.011719 59.875 344.699219 C 59.875 342.96875 60.144531 341.433594 60.6875 340.105469 C 61.230469 338.773438 62.015625 337.632812 63.046875 336.710938 C 65.1875 334.757812 68.136719 333.78125 71.894531 333.78125 C 80.210938 333.78125 84.371094 337.425781 84.371094 344.707031 C 84.371094 346.4375 84.132812 347.957031 83.660156 349.265625 M 84.507812 334.933594 C 81.667969 332.339844 77.460938 331.046875 71.894531 331.046875 C 66.628906 331.046875 62.566406 332.371094 59.695312 335.007812 C 57.109375 337.402344 55.8125 340.632812 55.8125 344.699219 C 55.8125 348.734375 57.148438 351.992188 59.820312 354.472656 C 61.296875 355.808594 63.015625 356.769531 64.972656 357.375 C 66.925781 357.980469 69.238281 358.273438 71.882812 358.273438 C 77.425781 358.273438 81.644531 356.992188 84.539062 354.429688 C 87.128906 352.089844 88.425781 348.847656 88.425781 344.699219 C 88.425781 340.523438 87.113281 337.261719 84.496094 334.921875 Z M 119.761719 350.375 C 119.761719 355.605469 115.074219 358.222656 105.703125 358.222656 C 102.835938 358.222656 100.425781 358.039062 98.464844 357.667969 C 96.5 357.296875 94.910156 356.699219 93.6875 355.859375 C 92.742188 355.226562 91.988281 354.386719 91.433594 353.355469 C 90.875 352.324219 90.515625 351.03125 90.347656 349.472656 L 94.710938 349.429688 C 94.710938 351.488281 95.472656 353.007812 97.007812 353.980469 C 98.644531 355.148438 101.546875 355.734375 105.710938 355.734375 C 112.261719 355.734375 115.539062 354.09375 115.539062 350.808594 C 115.539062 348.890625 114.4375 347.5625 112.242188 346.84375 C 111.796875 346.707031 109.148438 346.335938 104.292969 345.738281 C 99.441406 345.140625 96.414062 344.605469 95.21875 344.132812 C 92.632812 343.101562 91.339844 341.253906 91.339844 338.582031 C 91.339844 335.964844 92.496094 334.015625 94.808594 332.738281 C 95.949219 332.210938 97.375 331.800781 99.089844 331.507812 C 100.800781 331.214844 102.785156 331.066406 105.039062 331.066406 C 114.0625 331.066406 118.574219 333.898438 118.574219 339.558594 L 114.425781 339.558594 C 114.425781 335.582031 111.253906 333.589844 104.914062 333.589844 C 101.6875 333.589844 99.289062 333.988281 97.703125 334.800781 C 96.117188 335.613281 95.328125 336.847656 95.328125 338.523438 C 95.328125 340.082031 96.394531 341.21875 98.539062 341.90625 C 99.792969 342.265625 102.671875 342.683594 107.175781 343.15625 C 111.21875 343.519531 113.980469 344.03125 115.480469 344.703125 C 118.347656 345.816406 119.777344 347.707031 119.777344 350.375 Z M 136.890625 357.457031 L 135.117188 357.703125 L 134.011719 357.785156 C 131.171875 357.785156 129.125 357.375 127.867188 356.550781 C 126.613281 355.730469 125.984375 354.285156 125.984375 352.222656 L 125.984375 334.496094 L 120.8125 334.496094 L 120.8125 331.878906 L 125.941406 331.878906 L 125.984375 323.5 L 129.960938 323.5 L 129.960938 331.886719 L 136.882812 331.886719 L 136.882812 334.539062 L 129.960938 334.496094 L 129.960938 351.75 C 129.960938 353.035156 130.300781 353.921875 130.988281 354.410156 C 131.679688 354.902344 132.890625 355.144531 134.632812 355.144531 C 134.886719 355.171875 135.164062 355.164062 135.46875 355.117188 C 135.777344 355.070312 136.234375 354.964844 136.847656 354.804688 L 136.890625 357.464844 Z M 164.386719 351.578125 C 163.304688 352.46875 162.066406 353.148438 160.675781 353.625 C 159.285156 354.097656 157.6875 354.332031 155.878906 354.332031 C 147.5625 354.332031 143.40625 350.898438 143.40625 344.03125 C 143.40625 340.832031 144.46875 338.332031 146.597656 336.523438 C 148.726562 334.714844 151.722656 333.8125 155.585938 333.8125 C 159.480469 333.8125 162.4375 334.722656 164.453125 336.542969 C 166.46875 338.363281 167.476562 340.804688 167.476562 343.863281 C 167.476562 347.191406 166.445312 349.773438 164.390625 351.582031 M 171.453125 331.90625 L 167.476562 331.90625 L 167.433594 336.292969 C 165.683594 334.511719 164.429688 333.386719 163.679688 332.914062 C 161.460938 331.691406 158.574219 331.078125 155.039062 331.078125 C 149.863281 331.078125 145.914062 332.261719 143.183594 334.625 C 140.597656 336.792969 139.304688 339.9375 139.304688 344.050781 C 139.304688 346.082031 139.628906 347.898438 140.285156 349.496094 C 140.941406 351.09375 141.894531 352.449219 143.148438 353.5625 C 145.878906 355.84375 149.738281 356.984375 154.726562 356.984375 C 160.71875 356.984375 164.96875 355.34375 167.476562 352.066406 L 167.476562 356.605469 C 167.476562 359.5 166.566406 361.738281 164.742188 363.324219 C 162.921875 364.910156 159.921875 365.703125 155.75 365.703125 C 151.824219 365.703125 149.03125 365.164062 147.359375 364.082031 C 146.109375 363.253906 145.246094 361.8125 144.773438 359.761719 L 140.679688 359.761719 C 141.125 362.625 142.34375 364.695312 144.3125 365.972656 C 146.59375 367.449219 150.449219 368.191406 155.878906 368.191406 C 166.261719 368.191406 171.453125 364.332031 171.453125 356.613281 Z M 192.957031 334.488281 C 191.765625 334.292969 190.648438 334.195312 189.628906 334.195312 C 183.089844 334.195312 179.828125 337.78125 179.828125 344.945312 L 179.828125 357.410156 L 175.894531 357.410156 L 175.851562 331.90625 L 179.828125 331.945312 L 179.828125 336.496094 L 180.035156 336.496094 C 180.703125 334.703125 181.761719 333.34375 183.207031 332.421875 C 184.789062 331.523438 187.152344 331.074219 190.296875 331.074219 L 192.964844 331.074219 L 192.964844 334.488281 Z M 196.65625 343.042969 C 197.15625 340.148438 198.28125 337.894531 200.035156 336.3125 C 201.175781 335.394531 202.46875 334.703125 203.914062 334.242188 C 205.359375 333.785156 206.988281 333.554688 208.796875 333.554688 C 212.328125 333.554688 215.210938 334.523438 217.453125 336.460938 C 219.691406 338.398438 220.808594 340.59375 220.808594 343.035156 L 196.644531 343.035156 M 221.1875 335.167969 C 219.796875 333.773438 218.070312 332.742188 216.011719 332.078125 C 213.949219 331.417969 211.542969 331.074219 208.785156 331.074219 C 203.632812 331.074219 199.640625 332.269531 196.796875 334.664062 C 193.957031 337.058594 192.539062 340.316406 192.539062 344.4375 C 192.539062 348.5625 193.902344 351.832031 196.628906 354.253906 C 199.582031 356.925781 203.742188 358.261719 209.113281 358.261719 C 211.253906 358.261719 213.238281 358.019531 215.058594 357.535156 C 216.882812 357.050781 218.476562 356.363281 219.839844 355.476562 C 222.234375 353.757812 223.75 351.636719 224.390625 349.113281 L 220.09375 349.113281 C 218.621094 353.472656 214.949219 355.65625 209.078125 355.65625 C 204.933594 355.65625 201.746094 354.589844 199.523438 352.457031 C 197.601562 350.628906 196.644531 348.261719 196.644531 345.351562 L 224.988281 345.351562 C 224.988281 341.027344 223.722656 337.632812 221.1875 335.175781 Z M 266.992188 346.972656 C 266.992188 354.546875 260.886719 358.332031 248.671875 358.332031 C 241.355469 358.332031 236.015625 357.027344 232.648438 354.417969 C 229.894531 352.273438 228.515625 349.007812 228.515625 344.609375 L 233.433594 344.609375 C 233.433594 351.679688 238.503906 355.210938 248.671875 355.210938 C 253.542969 355.210938 257.0625 354.488281 259.234375 353.042969 C 261.070312 351.765625 261.992188 349.761719 261.992188 347.035156 C 261.992188 344.339844 260.738281 342.441406 258.234375 341.363281 C 256.8125 340.78125 253.347656 340.042969 247.835938 339.144531 C 240.90625 338.089844 236.410156 337.03125 234.351562 335.976562 C 231.375 334.417969 229.882812 331.777344 229.882812 328.050781 C 229.882812 324.574219 231.152344 321.988281 233.683594 320.292969 C 236.410156 318.453125 241.085938 317.523438 247.707031 317.523438 C 259.675781 317.523438 265.660156 321.5 265.660156 329.449219 L 260.703125 329.449219 C 260.703125 323.492188 256.265625 320.515625 247.371094 320.515625 C 242.914062 320.515625 239.652344 321.113281 237.589844 322.3125 C 235.640625 323.59375 234.664062 325.472656 234.664062 327.949219 C 234.664062 330.539062 235.917969 332.363281 238.425781 333.421875 C 239.757812 334.03125 243.683594 334.882812 250.199219 335.96875 C 256.320312 336.886719 260.457031 337.957031 262.597656 339.183594 C 265.53125 340.6875 266.984375 343.289062 266.984375 346.992188 Z M 306.925781 350.855469 C 305.089844 352.328125 303.015625 353.429688 300.699219 354.167969 C 298.386719 354.902344 295.789062 355.273438 292.9375 355.273438 C 287.085938 355.273438 282.355469 353.6875 278.753906 350.542969 C 275.152344 347.394531 273.34375 343.1875 273.34375 337.945312 C 273.34375 332.472656 275.132812 328.199219 278.710938 325.148438 C 282.292969 322.101562 287.035156 320.566406 292.941406 320.566406 C 298.933594 320.566406 303.640625 322.164062 307.066406 325.359375 C 308.875 326.914062 310.214844 328.734375 311.078125 330.824219 C 311.945312 332.917969 312.375 335.285156 312.375 337.953125 C 312.375 343.398438 310.5625 347.703125 306.941406 350.871094 M 309.554688 353.449219 C 312.117188 351.640625 314.011719 349.453125 315.238281 346.871094 C 316.464844 344.292969 317.078125 341.332031 317.078125 337.96875 C 317.078125 331.933594 315.074219 327.09375 311.054688 323.453125 C 308.914062 321.449219 306.324219 319.960938 303.289062 318.988281 C 300.253906 318.015625 296.800781 317.523438 292.902344 317.523438 C 285.328125 317.523438 279.382812 319.359375 275.070312 323.03125 C 270.757812 326.699219 268.597656 331.675781 268.597656 337.960938 C 268.597656 344.078125 270.777344 349.011719 275.132812 352.765625 C 279.488281 356.515625 285.4375 358.394531 292.976562 358.394531 C 295.925781 358.394531 298.5 358.195312 300.699219 357.796875 C 302.898438 357.398438 304.761719 356.785156 306.292969 355.957031 L 313.554688 360.992188 L 316.589844 358.207031 L 309.554688 353.4375 Z M 353.890625 357.425781 L 320.296875 357.425781 L 320.296875 318.503906 L 324.917969 318.421875 L 324.917969 354.15625 L 353.933594 354.15625 L 353.894531 357.402344 Z M 353.890625 357.425781 " fill-opacity="1" fill-rule="nonzero"/></g><path fill="#0093e8" d="M 313.070312 195.601562 L 313.121094 195.550781 L 313.046875 195.601562 Z M 313.070312 195.601562 " fill-opacity="1" fill-rule="nonzero"/><path fill="#0093e8" d="M 275.886719 193.214844 L 275.914062 193.242188 L 275.914062 193.253906 L 275.875 193.265625 C 274.054688 193.933594 272.550781 194.207031 271.28125 194.773438 C 269.988281 195.289062 268.945312 196.230469 268.332031 197.433594 L 268.320312 197.460938 C 267.539062 198.902344 266.863281 201.464844 267.0625 205.820312 C 267.578125 206.195312 268.207031 206.484375 268.847656 206.6875 L 268.894531 206.699219 C 271.015625 207.351562 274.570312 207.777344 278.535156 207.714844 C 286.445312 207.628906 296.1875 205.757812 301.359375 203.320312 C 305.816406 201.199219 309.632812 198.640625 313.035156 195.601562 C 295.761719 199.21875 286.007812 198.25 280.019531 195.753906 C 278.460938 195.074219 277.09375 194.234375 275.886719 193.214844 Z M 275.886719 193.214844 " fill-opacity="1" fill-rule="nonzero"/><path fill="#0093e8" d="M 258.175781 60.449219 L 258.25 60.5625 L 258.339844 60.664062 Z M 258.175781 60.449219 " fill-opacity="1" fill-rule="nonzero"/><path fill="#0093e8" d="M 192.105469 250.613281 C 192.09375 250.296875 192.105469 249.972656 192.09375 249.65625 C 192.09375 249.53125 192.082031 249.445312 192.082031 249.320312 Z M 192.105469 250.613281 " fill-opacity="1" fill-rule="nonzero"/><path fill="#0093e8" d="M 178.863281 195.210938 C 178.132812 194.847656 177.28125 194.585938 176.363281 194.460938 L 176.324219 194.460938 L 176.324219 194.433594 L 176.0625 194.433594 C 175.410156 194.496094 174.457031 194.722656 172.597656 196.792969 C 168.277344 201.691406 166.773438 204.765625 163.207031 207.640625 C 159.640625 210.503906 155.023438 212.035156 145.78125 213.953125 C 142.859375 214.558594 141.175781 215.222656 140.070312 215.761719 C 140.433594 216.0625 140.398438 216.140625 140.9375 216.429688 C 142.292969 217.179688 144.027344 217.847656 145.429688 218.210938 C 149.398438 219.214844 155.925781 220.382812 162.730469 219.214844 C 169.535156 218.035156 176.613281 214.734375 182.652344 206.160156 C 183.695312 204.679688 183.808594 202.492188 182.953125 200.144531 C 182.101562 197.796875 180.191406 195.777344 178.863281 195.210938 Z M 178.863281 195.210938 " fill-opacity="1" fill-rule="nonzero"/><path fill="#0093e8" d="M 229.554688 27.195312 L 228.835938 27.332031 C 229.074219 27.28125 229.339844 27.257812 229.578125 27.207031 C 229.566406 27.207031 229.566406 27.195312 229.554688 27.195312 Z M 229.554688 27.195312 " fill-opacity="1" fill-rule="nonzero"/><path fill="#0093e8" d="M 264.476562 94.960938 C 256.054688 95.074219 251.332031 97.269531 248.847656 100.144531 C 245.332031 104.222656 245.007812 111.378906 247.191406 120.191406 C 249.363281 129.015625 253.84375 138.882812 258.0625 147.082031 C 260.171875 151.1875 262.21875 154.878906 263.863281 157.878906 C 265.519531 160.890625 266.738281 163.023438 267.476562 164.84375 C 268.15625 166.527344 268.921875 168.007812 269.6875 169.390625 C 272.949219 162.421875 273.527344 155.582031 273.203125 148.449219 C 272.773438 139.625 270.742188 130.597656 271.042969 121.460938 C 271.382812 110.777344 273.464844 103.824219 273.640625 95.5625 C 270.890625 95.183594 267.703125 94.960938 264.476562 94.960938 Z M 266.035156 101.3125 L 266.019531 101.410156 C 266.019531 101.449219 266.019531 101.488281 266.019531 101.539062 C 266.019531 102.113281 265.859375 102.667969 265.570312 103.121094 L 265.582031 103.105469 C 265.191406 103.824219 264.742188 104.449219 264.214844 104.988281 C 262.984375 106.359375 261.339844 107.3125 259.480469 107.636719 L 259.429688 107.652344 C 259.167969 107.6875 258.867188 107.703125 258.550781 107.703125 C 256.96875 107.703125 255.515625 107.199219 254.320312 106.34375 L 254.347656 106.359375 C 253.730469 105.929688 253.191406 105.441406 252.753906 104.890625 L 252.738281 104.875 C 252.351562 104.449219 252.074219 103.898438 251.960938 103.308594 L 251.960938 103.28125 C 251.960938 103.21875 251.949219 103.15625 251.949219 103.09375 C 251.949219 102.554688 252.148438 102.050781 252.488281 101.675781 C 252.890625 101.210938 253.367188 100.835938 253.917969 100.558594 L 253.945312 100.546875 C 255.136719 99.867188 256.742188 99.367188 258.5625 99.089844 C 259.242188 98.988281 259.921875 98.9375 260.546875 98.925781 L 260.546875 98.964844 L 261.164062 98.964844 C 261.980469 98.988281 262.730469 99.078125 263.398438 99.242188 C 264.0625 99.390625 264.640625 99.617188 265.105469 99.929688 C 265.570312 100.246094 265.921875 100.722656 266.035156 101.3125 Z M 266.035156 101.3125 " fill-opacity="1" fill-rule="nonzero"/><path fill="#0093e8" d="M 126.324219 150.28125 C 126.324219 148.023438 126.5 145.8125 126.828125 143.640625 L 126.800781 143.878906 C 128.082031 134.605469 128.257812 125.929688 128.109375 119.074219 C 127.957031 112.394531 127.480469 107.953125 127.480469 105.179688 C 127.480469 105.140625 127.480469 105.101562 127.480469 105.066406 C 127.480469 105.027344 127.480469 104.976562 127.480469 104.941406 L 127.480469 104.875 L 127.46875 104.800781 L 127.46875 104.789062 C 127.46875 104.765625 127.46875 104.75 127.46875 104.726562 C 127.46875 89.863281 130.078125 75.613281 134.8125 62.394531 C 138.289062 53.054688 143.460938 43.578125 151.207031 35.894531 C 143.585938 33.359375 130.078125 29.492188 115.441406 28.765625 C 114.035156 28.6875 112.390625 28.640625 110.746094 28.640625 L 110.734375 28.640625 L 110.734375 28.652344 C 109.164062 28.652344 107.582031 28.703125 106.027344 28.789062 C 93.496094 29.519531 81.648438 33.195312 73.183594 42.285156 C 64.699219 51.375 59.113281 66.273438 60.332031 90.941406 C 60.570312 95.613281 62.578125 108.691406 66.015625 124.234375 C 69.46875 139.777344 74.328125 158.066406 80.179688 174.222656 C 86.039062 190.378906 93.144531 204.4375 99.898438 211.09375 C 103.300781 214.417969 106.25 215.761719 108.925781 215.648438 C 111.613281 215.523438 114.851562 213.953125 118.804688 209.148438 C 126.574219 199.679688 133.917969 191.308594 141.503906 183.171875 L 141.25 183.4375 C 132.085938 175.339844 126.324219 163.503906 126.324219 150.28125 Z M 126.324219 150.28125 " fill-opacity="1" fill-rule="nonzero"/><path fill="#0093e8" d="M 193.097656 28.023438 L 193.097656 28 C 178.433594 28.035156 167.925781 32.519531 159.941406 39.234375 C 151.722656 46.175781 146.210938 55.679688 142.582031 65.410156 C 138.277344 76.957031 136.808594 88.128906 136.21875 95.710938 L 136.378906 95.613281 C 140.8125 93.101562 146.625 90.589844 152.851562 89.132812 C 159.078125 87.679688 165.78125 87.238281 171.855469 89.625 C 177.933594 92.007812 182.953125 97.621094 184.773438 106.132812 C 193.5 147.019531 182.0625 162.222656 177.84375 173.695312 C 176.5 176.996094 175.109375 181.242188 173.941406 185.570312 L 173.738281 186.414062 C 174.265625 186.285156 174.808594 186.136719 175.335938 186.085938 C 178.308594 185.835938 180.644531 186.839844 182.023438 187.441406 C 186.269531 189.222656 189.179688 192.964844 190.75 197.234375 C 191.164062 198.351562 191.453125 199.554688 191.628906 200.796875 C 191.792969 201.226562 191.878906 201.726562 191.878906 202.242188 C 191.878906 202.292969 191.878906 202.34375 191.878906 202.394531 C 191.679688 208.667969 191.554688 216.039062 191.554688 223.445312 C 191.554688 232.21875 191.730469 240.957031 192.054688 249.65625 C 192.34375 256.261719 192.757812 262.109375 193.273438 266.71875 C 193.8125 271.414062 194.566406 274.964844 195.042969 276.171875 C 196.625 280.1875 198.949219 285.449219 203.140625 289.027344 C 207.332031 292.589844 213.347656 294.976562 224.332031 292.589844 C 233.859375 290.519531 239.734375 287.644531 243.664062 283.515625 C 247.59375 279.382812 249.925781 273.632812 251.421875 264.835938 C 253.667969 251.652344 258.175781 213.429688 258.726562 206.234375 C 258.476562 200.8125 259.265625 196.644531 260.988281 193.46875 C 262.746094 190.203125 265.480469 188.207031 267.828125 187.128906 C 269.007812 186.589844 270.113281 186.222656 271.015625 185.960938 C 269.914062 184.367188 268.921875 183.035156 267.890625 181.742188 L 268.003906 181.878906 C 264.753906 177.914062 261.980469 173.355469 259.882812 168.449219 L 259.746094 168.085938 C 258.476562 165.460938 257.410156 163.476562 256.292969 161.53125 L 256.554688 162.019531 C 254.910156 159.007812 252.828125 155.242188 250.644531 151.011719 C 246.273438 142.539062 241.527344 132.269531 239.054688 122.261719 C 236.59375 112.269531 236.242188 101.925781 242.546875 94.632812 C 248.121094 88.15625 257.925781 85.46875 272.625 86.976562 C 272.199219 85.65625 271.933594 84.566406 271.191406 82.808594 C 267.617188 74.398438 263.308594 67.140625 258.199219 60.5625 C 245.734375 44.46875 225.585938 28.539062 194.476562 28.023438 Z M 193.097656 28.023438 " fill-opacity="1" fill-rule="nonzero"/><path fill="#0093e8" d="M 136.042969 105.882812 L 136.066406 105.867188 L 136.105469 105.832031 Z M 136.042969 105.882812 " fill-opacity="1" fill-rule="nonzero"/><path fill="#0093e8" d="M 216.132812 13.625 C 216.347656 13.5625 216.574219 13.535156 216.773438 13.488281 L 217.023438 13.410156 Z M 216.132812 13.625 " fill-opacity="1" fill-rule="nonzero"/><path fill="#0093e8" d="M 154.496094 97.382812 L 154.621094 97.371094 L 154.722656 97.332031 Z M 154.496094 97.382812 " fill-opacity="1" fill-rule="nonzero"/><path fill="#0093e8" d="M 170.050781 170.746094 C 175.082031 157.011719 184.988281 146.992188 176.652344 107.902344 C 175.285156 101.5 172.585938 98.914062 168.867188 97.457031 C 167.0625 96.792969 164.964844 96.402344 162.769531 96.402344 C 162.628906 96.402344 162.480469 96.402344 162.339844 96.402344 L 162.367188 96.402344 C 159.691406 96.429688 157.105469 96.765625 154.621094 97.371094 C 149.347656 98.699219 144.703125 100.582031 140.386719 102.992188 C 138.765625 103.886719 137.371094 104.8125 136.066406 105.855469 L 135.828125 106.082031 C 135.902344 107.914062 136.253906 112.359375 136.40625 118.898438 C 136.554688 126.054688 136.378906 135.179688 135.011719 145.0625 C 132.050781 166.527344 147.441406 184.304688 165.515625 184.328125 C 166.585938 179.921875 168.316406 175.453125 170.050781 170.746094 Z M 159.367188 108.367188 C 158.777344 107.765625 158.296875 107.085938 157.910156 106.34375 L 157.882812 106.296875 C 157.558594 105.769531 157.371094 105.128906 157.371094 104.4375 C 157.371094 104.3125 157.382812 104.1875 157.394531 104.0625 L 157.394531 104.074219 C 157.582031 102.71875 158.6875 102.015625 159.753906 101.625 C 160.746094 101.300781 161.851562 101.109375 163.03125 101.109375 C 163.207031 101.109375 163.382812 101.109375 163.582031 101.125 L 163.570312 101.074219 C 164.222656 101.074219 164.925781 101.136719 165.628906 101.234375 C 167.527344 101.5 169.21875 102.015625 170.5 102.769531 C 171.140625 103.121094 171.695312 103.558594 172.132812 104.085938 L 172.144531 104.097656 C 172.570312 104.589844 172.824219 105.226562 172.824219 105.945312 C 172.824219 106.042969 172.824219 106.144531 172.8125 106.246094 L 172.8125 106.234375 C 172.683594 106.984375 172.347656 107.636719 171.882812 108.164062 C 171.367188 108.792969 170.789062 109.332031 170.136719 109.785156 L 170.113281 109.796875 C 168.84375 110.726562 167.25 111.277344 165.53125 111.277344 C 165.191406 111.277344 164.851562 111.253906 164.527344 111.214844 L 164.5625 111.214844 C 162.480469 110.863281 160.695312 109.835938 159.367188 108.367188 Z M 159.367188 108.367188 " fill-opacity="1" fill-rule="nonzero"/><path fill="#0093e8" d="M 140.132812 103.121094 C 140.222656 103.070312 140.308594 103.042969 140.386719 102.992188 C 140.398438 102.992188 140.410156 102.980469 140.421875 102.96875 Z M 140.132812 103.121094 " fill-opacity="1" fill-rule="nonzero"/><path fill="#0093e8" d="M 264.890625 55.441406 C 270.328125 62.40625 275.035156 70.34375 278.664062 78.851562 L 278.925781 79.542969 C 280.292969 82.859375 281.210938 85.65625 281.726562 87.828125 C 281.988281 88.921875 282.164062 89.835938 282.226562 90.792969 C 282.253906 91.269531 282.277344 91.757812 282.078125 92.597656 C 282.078125 92.636719 282.015625 92.726562 282 92.761719 C 282.378906 103.757812 279.679688 111.214844 279.367188 121.710938 C 279.113281 129.320312 281.035156 138.257812 281.511719 148.011719 C 281.964844 157.175781 280.871094 167.242188 274.984375 177.121094 C 275.488281 177.726562 275.925781 178.328125 276.402344 178.929688 C 291.957031 154.136719 303.167969 126.707031 309.144531 103.320312 C 312.34375 90.730469 314.039062 79.316406 314.1875 70.277344 C 314.316406 61.242188 312.644531 54.6875 310.535156 51.949219 C 293.890625 30.410156 271.382812 24.921875 252.5 24.773438 L 252.5 24.785156 L 250.691406 24.785156 C 243.414062 24.898438 236.382812 25.738281 229.589844 27.207031 C 245.007812 34.136719 256.679688 44.808594 264.890625 55.441406 Z M 264.890625 55.441406 " fill-opacity="1" fill-rule="nonzero"/><g clip-path="url(#e07962f8f4)"><path fill="#0093e8" d="M 195.167969 11.578125 L 195.042969 11.578125 C 180.429688 11.328125 167.890625 14.917969 157.757812 20.894531 C 147.792969 17.390625 127.117188 11.351562 105.308594 12.558594 C 90.132812 13.398438 73.5625 18.070312 61.285156 31.1875 C 49.046875 44.304688 42.578125 64.605469 43.9375 92.222656 C 44.3125 99.84375 46.457031 112.269531 50.011719 128.363281 C 53.578125 144.457031 58.574219 163.300781 64.8125 180.488281 C 71.050781 197.683594 77.878906 213.125 88.5625 223.621094 C 93.898438 228.882812 101.242188 233.300781 109.890625 232.9375 C 115.96875 232.683594 121.453125 229.984375 126.199219 226.007812 C 128.507812 229.082031 130.96875 230.425781 133.214844 231.667969 C 136.042969 233.238281 138.789062 234.304688 141.640625 235.007812 C 146.761719 236.300781 155.523438 238.03125 165.792969 236.261719 C 169.296875 235.671875 172.972656 234.519531 176.640625 232.875 C 176.777344 237.015625 176.941406 241.070312 177.089844 245.175781 C 177.605469 258.179688 177.921875 270.195312 181.773438 280.726562 C 182.390625 282.449219 184.097656 291.308594 190.789062 299.132812 C 197.480469 306.964844 210.609375 311.847656 225.546875 308.609375 C 236.09375 306.324219 249.488281 302.207031 258.402344 289.375 C 267.203125 276.699219 271.167969 258.507812 271.960938 229.007812 C 272.160156 227.414062 272.398438 226.054688 272.636719 224.789062 L 274.734375 224.976562 L 274.984375 224.976562 C 286.234375 225.492188 298.433594 223.871094 308.628906 219.078125 C 317.652344 214.847656 324.484375 210.566406 329.46875 202.96875 C 330.710938 201.085938 332.066406 198.816406 332.441406 194.898438 C 332.820312 190.980469 330.597656 184.855469 326.90625 182.03125 C 319.523438 176.355469 314.890625 178.515625 309.921875 179.558594 C 305.488281 180.601562 300.367188 181.253906 295.121094 181.390625 L 295.019531 181.390625 C 309.355469 156.949219 319.636719 130.988281 325.5 108.015625 C 328.976562 94.457031 330.921875 81.953125 331.074219 71.019531 C 331.238281 60.085938 330.359375 50.40625 323.878906 42.035156 C 303.65625 15.871094 275.222656 8.640625 253.214844 8.390625 C 252.539062 8.378906 251.847656 8.363281 251.171875 8.378906 L 251.171875 8.339844 C 239.195312 8.441406 227.671875 10.246094 216.761719 13.472656 L 216.246094 13.648438 C 209.945312 12.46875 202.625 11.714844 195.167969 11.578125 Z M 224.90625 19.574219 C 232.589844 17.679688 241.429688 16.539062 250.515625 16.425781 L 250.59375 16.425781 L 250.605469 16.375 C 271.417969 16.171875 297.996094 22.085938 317.089844 46.777344 C 321.382812 52.328125 322.664062 60.4375 322.511719 70.429688 C 322.347656 80.410156 320.527344 92.359375 317.191406 105.453125 C 310.710938 130.8125 298.484375 160.375 281.261719 186.902344 C 281.824219 187.316406 282.480469 187.679688 283.15625 187.957031 L 283.21875 187.980469 C 286.808594 189.488281 295.007812 190.78125 311.363281 187.378906 C 315.480469 186.5 318.496094 185.910156 321.621094 188.320312 C 323.027344 189.527344 323.90625 191.308594 323.90625 193.304688 C 323.90625 193.429688 323.90625 193.554688 323.894531 193.679688 L 323.894531 193.667969 C 323.703125 195.261719 323.140625 196.695312 322.273438 197.886719 C 319.109375 202.695312 312.871094 207.25 304.886719 211.003906 C 297.808594 214.34375 287.652344 216.089844 278.648438 216.191406 C 274.128906 216.238281 269.976562 215.886719 266.433594 214.769531 L 266.210938 214.683594 C 264.839844 227.988281 261.703125 254.265625 259.65625 266.253906 C 258.023438 275.917969 255.164062 283.601562 249.6875 289.351562 C 244.226562 295.101562 236.507812 298.566406 226.113281 300.824219 C 213.246094 303.625 203.855469 300.613281 197.804688 295.453125 C 191.765625 290.304688 189.003906 283.476562 187.335938 279.296875 C 186.191406 276.410156 185.601562 272.667969 185.027344 267.671875 C 184.449219 262.675781 184.035156 256.5625 183.746094 249.667969 C 183.46875 242.664062 183.316406 234.429688 183.316406 226.15625 C 183.316406 223.433594 183.34375 220.722656 183.367188 217.996094 C 178.183594 222.816406 171.628906 226.207031 164.351562 227.5 L 164.125 227.539062 C 155.574219 229.007812 147.953125 227.5625 143.398438 226.40625 C 140.976562 225.792969 138.867188 224.925781 136.882812 223.847656 C 134.796875 222.71875 132.816406 221.425781 131.484375 218.902344 C 130.957031 217.933594 130.644531 216.765625 130.644531 215.535156 C 130.644531 215.046875 130.695312 214.558594 130.792969 214.105469 C 131.246094 212.421875 132.1875 210.992188 133.480469 209.988281 L 133.492188 209.976562 C 135.953125 207.953125 139.191406 206.824219 144.101562 205.796875 C 153.015625 203.9375 156.128906 202.667969 158.023438 201.148438 C 159.628906 199.84375 161.460938 197.207031 164.675781 193.34375 C 164.664062 193.230469 164.652344 193.039062 164.636719 192.863281 L 164.636719 192.828125 C 158.5625 192.652344 152.902344 191.007812 147.953125 188.234375 L 148.144531 188.332031 C 146.285156 190.316406 136.78125 200.484375 125.207031 214.59375 C 120.335938 220.496094 114.953125 223.886719 109.277344 224.125 C 103.601562 224.363281 98.46875 221.472656 94.101562 217.195312 C 85.375 208.621094 78.421875 193.871094 72.355469 177.199219 C 66.304688 160.527344 61.386719 141.960938 57.882812 126.144531 C 54.367188 110.324219 52.308594 97.570312 52.007812 91.417969 C 50.703125 65.28125 56.742188 47.671875 67.097656 36.558594 C 77.464844 25.449219 91.675781 21.246094 105.523438 20.441406 C 130.390625 18.996094 153.992188 27.773438 158.777344 29.65625 C 167.988281 23.328125 179.851562 19.386719 194.652344 19.636719 C 202.109375 19.75 209.277344 20.742188 216.132812 22.511719 L 215.503906 22.375 L 215.757812 22.261719 C 218.15625 21.359375 221.21875 20.441406 224.355469 19.6875 Z M 224.90625 19.574219 " fill-opacity="1" fill-rule="nonzero"/></g></svg>